<svg version="1" xmlns="http://www.w3.org/2000/svg" width="466.667" height="466.667" viewBox="0 0 350.000000 350.000000"><path d="M120.4 33.2c-14.9 15.4-21.3 26.3-25.1 42.3-.9 3.9-.5 17.1.6 21.5 3.9 14.9 12.5 28.5 27.1 42.8 4.1 4 20.5 17.4 24.1 19.7.9.5 4.8 3.1 8.7 5.7 4 2.7 7.5 4.8 7.8 4.8.3 0 1.2.7 2 1.5 1.3 1.2.2 2.3-8.8 8.2-14.6 9.6-27.2 19.5-35.3 27.9-10.3 10.6-11.7 12.2-16.3 19.6-14.7 23.6-14.1 45.8 2.2 70.1 4.3 6.5 19.6 22.7 21.4 22.7 1 0 3.1-1 6.1-2.7.2-.2-1.3-2-3.3-4-8.6-8.5-19.4-26.6-20.2-33.8 0-.6-.3-1.7-.7-2.5-1.1-3-1.4-17-.4-22.5 1.8-9.6 8.1-22.1 16.1-32 8.1-9.8 19.5-20.1 37.1-33.3 2.5-1.9 14.5-9.2 15.1-9.2 1.8 0 17.6 11.8 28.3 21.1 11.5 10 26.1 27.7 26.1 31.6 0 .7.4 1.3.8 1.3s1.6 2.2 2.6 4.9c7.3 20.3 5 37.6-7.3 56.5-3 4.6-5.6 7.9-12.3 15.1l-4.7 5.1 6.2 3.1 6.3 3.1 2.9-2.7c4.7-4.2 13.8-15.1 17.3-20.6 23.9-38.1 7.3-75.6-50-113.3-6.5-4.2-11.8-7.9-11.8-8.2 0-.3 3.1-2.3 6.8-4.5 10.9-6.4 31-22.2 39.8-31.1 30.1-30.6 33.7-60.5 11.1-91.3-5-6.8-20.7-22.8-22.7-23.2-1.7-.3-7 1.1-7 1.8 0 .3 1.5 1.9 3.3 3.6 5.2 5.2 13.4 15.3 16.4 20.5 1.5 2.6 3.2 5 3.8 5.4.5.4.7.8.3.8-.4 0 .2 2.1 1.4 4.7 5 11.2 5.7 26.8 1.7 38.4-2.3 6.7-5.9 14.2-7.1 14.7-.5.2-.8.9-.8 1.6 0 .7-.8 2.1-1.7 3.2-1 1-3 3.5-4.4 5.4-5.1 6.8-22.7 23.6-27.8 26.4-.9.5-2.2 1.6-2.9 2.3-.7.7-5.8 4.3-11.3 7.9-11.7 7.8-9.4 8.2-25.6-3.9-12.5-9.3-28.2-24.7-34.3-33.6-11.4-16.9-15-33.3-10.9-50.5 2.7-11.5 13.7-28.3 26.8-41l5-4.9-5.7-2.4c-3.1-1.3-6.2-2.6-6.8-2.9-.6-.3-5.1 3.7-10 8.8z"/></svg>