<svg version="1" xmlns="http://www.w3.org/2000/svg" width="537.333" height="537.333" viewBox="0 0 403.000000 403.000000"><path d="M37.3 4.7c-.4 2.7-.8 10-.8 16.3.2 47.7 32.2 95.2 97.3 144.4 9.1 6.9 39.5 27.2 48 32.1 1.7 1.1 3.2 2.2 3.2 2.5 0 .3-1.5 1.4-3.2 2.5-8.5 4.9-38.9 25.2-48 32.1-24.6 18.6-48.5 40.9-62.5 58.4-13 16.2-23.7 34.9-28.7 50-5.7 17.4-7.8 36.9-5.4 51.5l1.3 8 14.7.3 14.7.3-.6-8.8C64.2 346.7 96.6 295.8 161 247c10.9-8.2 37.7-26.6 44.7-30.6l3.2-1.8 10.3 6.9c50.1 33.8 84.7 68.9 102.7 103.9 6.2 12.1 11.7 29.5 13.2 41.6 1.1 8.9.7 23.4-.7 32.2l-.7 3.8h32l.7-3.7c3.5-21.6-5.6-54.8-21.9-80-14.9-23-43.3-51.8-74-75-9.4-7-36.1-25-45.7-30.8-3.7-2.2-6.8-4.2-6.8-4.5 0-.3 3.1-2.3 6.8-4.5 9.6-5.8 36.3-23.8 45.7-30.8 21.9-16.6 48.5-41.7 62.2-58.7 28.7-35.6 40.2-76.6 31.2-111.3l-1-3.7h-14.5c-12.4 0-14.5.2-14.1 1.5.4.8.9 5.8 1.3 11.3 2.7 39.2-16.2 78.1-57.7 118.9-11.2 11-18.5 17.2-36.4 30.9-11 8.4-45.3 31.4-46.8 31.4-2.7 0-35.5-23.8-52.2-37.8-32.1-27.1-55.9-57-66.4-83.6C70.4 58.4 67 41.7 67 28.7c0-5.9 2.1-21.7 3.6-26.5l.6-2.2H38.1l-.8 4.7z"/><path d="M193.5 15.9c-72.2 26-70.6 25.4-72.3 27.8-1.9 3-.9 6.8 2.3 8.9 2.8 1.8.8 2.4 33.5-9.6 10.7-3.9 30.3-11 43.5-15.7 23.9-8.4 65.8-23.4 72.5-25.9 3.1-1.1 1.2-1.3-16-1.3h-19.5l-44 15.8zM261 60c-15.1 5.5-30.6 11.1-34.5 12.4-3.8 1.4-18.2 6.6-32 11.6-13.7 5.1-32 11.6-40.5 14.6-15.6 5.4-19 7.5-19 11.6 0 3 4.6 7 7.3 6.3 2.6-.8 37.1-12.9 44.2-15.6 2.8-1 12-4.4 20.5-7.4 8.5-3.1 17.8-6.5 20.5-7.5 2.8-1.1 12-4.4 20.5-7.4 39.2-13.7 46.2-16.4 48.1-17.9 4.3-3.7 1.2-10.8-4.7-10.6-1.6 0-15.3 4.5-30.4 9.9zM227 295.5c-17.3 6.3-36 13-41.5 14.9-5.5 1.9-13.8 4.9-18.5 6.6-4.7 1.7-10.7 3.9-13.5 4.9-32.4 11.6-45.3 16.6-46.8 17.9-2.6 2.3-1.8 7 1.5 9.5l2.7 2 41.8-15.1c23-8.3 55.3-19.9 71.8-25.7 36.7-13 39.5-14.1 41.8-16.7 3.7-4.3 1.1-9.9-4.6-9.7-1.8 0-17.4 5.2-34.7 11.4zM242.5 358.1c-16.5 6-32.9 11.9-36.5 13.2-11.8 4.4-56.2 20.4-69.8 25.2-7.3 2.6-13.5 5.1-13.8 5.6-.3.5 7.4.9 17.3.9h17.8l18-6.6c9.9-3.6 22.3-8 27.5-9.9 59.2-21.1 76.3-27.4 78-29 4.5-4 1.3-10.6-5.1-10.4-1.9.1-16.9 5-33.4 11z"/></svg>